<svg width="24" height="25" viewBox="0 0 24 25" fill="none" xmlns="http://www.w3.org/2000/svg">
<path d="M11.6714 0.828125C5.22537 0.828125 0 6.0535 0 12.4995C0 18.9455 5.22537 24.1709 11.6714 24.1709C18.1174 24.1709 23.3428 18.9455 23.3428 12.4995C23.3428 6.0535 18.1174 0.828125 11.6714 0.828125Z" fill="white"/>
<g clip-path="url(#clip0_1863_1618)">
<path fill-rule="evenodd" clip-rule="evenodd" d="M10.0527 6.42969C9.38173 6.43018 8.8387 6.97362 8.83919 7.64326C8.8387 8.31291 9.38223 8.85634 10.0532 8.85684H11.2672V7.64376C11.2677 6.97411 10.7242 6.43068 10.0527 6.42969C10.0532 6.42969 10.0532 6.42969 10.0527 6.42969V6.42969ZM10.0527 9.66655H6.81632C6.14533 9.66704 5.6018 10.2105 5.6023 10.8801C5.6013 11.5498 6.14484 12.0932 6.81582 12.0942H10.0527C10.7237 12.0937 11.2672 11.5503 11.2667 10.8806C11.2672 10.2105 10.7237 9.66704 10.0527 9.66655Z" fill="#4588EC"/>
<path fill-rule="evenodd" clip-rule="evenodd" d="M17.7406 10.8801C17.7411 10.2105 17.1976 9.66704 16.5266 9.66655C15.8556 9.66704 15.3121 10.2105 15.3126 10.8801V12.0942H16.5266C17.1976 12.0937 17.7411 11.5503 17.7406 10.8801ZM14.5037 10.8801V7.64326C14.5042 6.97411 13.9612 6.43068 13.2902 6.42969C12.6192 6.43018 12.0757 6.97362 12.0762 7.64326V10.8801C12.0752 11.5498 12.6187 12.0932 13.2897 12.0942C13.9607 12.0937 14.5042 11.5503 14.5037 10.8801Z" fill="#4588EC"/>
<path fill-rule="evenodd" clip-rule="evenodd" d="M13.2897 18.5673C13.9607 18.5669 14.5042 18.0234 14.5037 17.3538C14.5042 16.6841 13.9607 16.1407 13.2897 16.1402H12.0757V17.3538C12.0752 18.0229 12.6187 18.5664 13.2897 18.5673ZM13.2897 15.33H16.5266C17.1976 15.3295 17.7411 14.7861 17.7406 14.1164C17.7416 13.4468 17.1981 12.9033 16.5271 12.9023H13.2902C12.6192 12.9028 12.0757 13.4463 12.0762 14.1159C12.0757 14.7861 12.6187 15.3295 13.2897 15.33Z" fill="#4588EC"/>
<path fill-rule="evenodd" clip-rule="evenodd" d="M5.6023 14.1179C5.6018 14.7875 6.14533 15.331 6.81632 15.3315C7.4873 15.331 8.03083 14.7875 8.03034 14.1179V12.9043H6.81632C6.14533 12.9048 5.6018 13.4482 5.6023 14.1179ZM8.83919 14.1179V17.3547C8.8382 18.0244 9.38173 18.5678 10.0527 18.5688C10.7237 18.5683 11.2672 18.0249 11.2667 17.3552V14.1189C11.2677 13.4492 10.7242 12.9058 10.0532 12.9048C9.38173 12.9048 8.8387 13.4482 8.83919 14.1179C8.83919 14.1179 8.83919 14.1184 8.83919 14.1179Z" fill="#4588EC"/>
</g>
<defs>
<clipPath id="clip0_1863_1618">
<rect width="12.1382" height="12.1382" fill="white" transform="translate(5.60229 6.42969)"/>
</clipPath>
</defs>
</svg>
