<svg width="23" height="23" viewBox="0 0 23 23" fill="none" xmlns="http://www.w3.org/2000/svg">
<path d="M11.5 0.000976562C5.14865 0.000976562 0 5.14962 0 11.501C0 17.8523 5.14865 23.001 11.5 23.001C17.8514 23.001 23 17.8523 23 11.501C23 5.14962 17.8514 0.000976562 11.5 0.000976562ZM16.1779 9.42139C16.1827 9.51962 16.1839 9.61785 16.1839 9.71369C16.1839 12.7085 13.9066 16.1597 9.74026 16.1597C8.50915 16.1617 7.30366 15.8081 6.2687 15.1414C6.44479 15.163 6.62568 15.1714 6.80896 15.1714C7.87031 15.1714 8.84661 14.8108 9.62167 14.2023C9.14935 14.193 8.69169 14.0366 8.31248 13.7549C7.93326 13.4732 7.65139 13.0801 7.50615 12.6306C7.84534 12.6951 8.19477 12.6816 8.52797 12.5911C8.01532 12.4874 7.5543 12.2096 7.22309 11.8048C6.89188 11.4001 6.71086 10.8932 6.71073 10.3701V10.3426C7.0162 10.5115 7.36599 10.6145 7.73734 10.6265C7.25674 10.3066 6.91651 9.81511 6.78625 9.25265C6.65599 8.69018 6.74553 8.0992 7.03656 7.60056C7.60552 8.30014 8.31505 8.87244 9.11922 9.28041C9.92339 9.68838 10.8043 9.92292 11.7048 9.96884C11.5904 9.48286 11.6396 8.97266 11.845 8.51757C12.0504 8.06248 12.4004 7.688 12.8406 7.45233C13.2807 7.21667 13.7864 7.13304 14.279 7.21444C14.7716 7.29583 15.2236 7.5377 15.5645 7.90243C16.0715 7.80214 16.5576 7.6162 17.002 7.35259C16.8331 7.87744 16.4793 8.32311 16.0066 8.60681C16.4556 8.55273 16.8941 8.43201 17.3075 8.24863C17.0038 8.70371 16.6213 9.10088 16.1779 9.42139Z" fill="white"/>
</svg>
