<svg width="110" height="34" viewBox="0 0 110 34" fill="none" xmlns="http://www.w3.org/2000/svg">
<path d="M13.5363 0.606445L1.76157 8.30174L8.99329 13.0302L13.5363 9.9706V0.606445Z" fill="white"/>
<path d="M18.2647 23.9705L0 11.9176V21.189L18.2647 33.3346V23.9705Z" fill="white"/>
<path d="M39.4146 9.82768V7.75829H43.6201V23.6458C43.6201 26.2047 42.7634 28.174 41.0501 29.5536C39.3589 30.9109 37.3118 31.5896 34.9087 31.5896C31.1259 31.5896 28.4891 30.2323 26.9983 27.5176L30.6698 25.4148C31.4931 26.9724 32.9505 27.7512 35.0422 27.7512C36.3995 27.7512 37.4676 27.3952 38.2464 26.6831C39.0252 25.9711 39.4146 24.9587 39.4146 23.6458V21.8435C38.1462 23.5346 36.3661 24.3801 34.0742 24.3801C31.7156 24.3801 29.7352 23.5568 28.1331 21.9102C26.5532 20.2191 25.7633 18.1942 25.7633 15.8356C25.7633 13.4769 26.5644 11.4632 28.1665 9.7943C29.7686 8.12544 31.7378 7.29101 34.0742 7.29101C36.3661 7.29101 38.1462 8.13657 39.4146 9.82768ZM38.0795 19.1399C38.9695 18.2721 39.4146 17.1707 39.4146 15.8356C39.4146 14.5005 38.9695 13.4213 38.0795 12.598C37.2117 11.7302 36.0991 11.2963 34.7418 11.2963C33.4067 11.2963 32.283 11.7302 31.3707 12.598C30.5029 13.4213 30.069 14.5005 30.069 15.8356C30.069 17.1707 30.5029 18.2721 31.3707 19.1399C32.2607 19.9855 33.3844 20.4082 34.7418 20.4082C36.0991 20.4082 37.2117 19.9855 38.0795 19.1399Z" fill="white"/>
<path d="M51.3294 24.4469H47.0238V0.081543H51.3294V24.4469Z" fill="white"/>
<path d="M68.9883 22.3775C67.2972 24.0686 65.2056 24.9142 62.7134 24.9142C60.2212 24.9142 58.1296 24.0686 56.4385 22.3775C54.7474 20.6864 53.9018 18.5947 53.9018 16.1026C53.9018 13.6327 54.7474 11.5522 56.4385 9.86105C58.1519 8.14769 60.2435 7.29101 62.7134 7.29101C65.1833 7.29101 67.2749 8.14769 68.9883 9.86105C70.7017 11.5744 71.5584 13.6549 71.5584 16.1026C71.5584 18.5725 70.7017 20.6641 68.9883 22.3775ZM59.4758 19.4069C60.3436 20.2747 61.4228 20.7086 62.7134 20.7086C64.004 20.7086 65.0832 20.2747 65.951 19.4069C66.8188 18.5391 67.2527 17.4377 67.2527 16.1026C67.2527 14.7675 66.8188 13.6661 65.951 12.7982C65.0832 11.9304 64.004 11.4965 62.7134 11.4965C61.4228 11.4965 60.3436 11.9304 59.4758 12.7982C58.6303 13.6883 58.2075 14.7897 58.2075 16.1026C58.2075 17.4154 58.6303 18.5169 59.4758 19.4069Z" fill="white"/>
<path d="M82.1639 7.35777C84.6561 7.35777 86.6476 8.2367 88.1385 9.99456C89.6738 11.7302 90.4415 13.7884 90.4415 16.1693C90.4415 16.2806 90.4192 16.6255 90.3747 17.204H75.7222C75.9447 18.8729 76.6567 20.208 77.8583 21.2093C79.0599 22.2106 80.5618 22.7113 82.3642 22.7113C84.9009 22.7113 86.6921 21.7656 87.7379 19.8742L89.6738 21.009C88.9395 22.2106 87.9271 23.1563 86.6365 23.8461C85.3682 24.5136 83.9329 24.8474 82.3308 24.8474C79.7052 24.8474 77.569 24.0241 75.9224 22.3775C74.2758 20.7309 73.4525 18.6392 73.4525 16.1026C73.4525 13.5882 74.2647 11.5077 75.889 9.86105C77.5134 8.19219 79.605 7.35777 82.1639 7.35777ZM82.1639 9.49391C80.4283 9.49391 78.9709 10.0057 77.7915 11.0293C76.6345 12.0528 75.9447 13.399 75.7222 15.0679H88.1718C87.9271 13.2878 87.2484 11.9193 86.1358 10.9625C84.9788 9.98344 83.6548 9.49391 82.1639 9.49391Z" fill="white"/>
<path d="M107.797 11.0293V1.08286H110V24.4469H107.797V21.1759C106.262 23.6236 104.014 24.8474 101.055 24.8474C98.674 24.8474 96.638 24.0018 94.9469 22.3107C93.278 20.6196 92.4436 18.5502 92.4436 16.1026C92.4436 13.6549 93.278 11.5855 94.9469 9.89443C96.638 8.20332 98.674 7.35777 101.055 7.35777C104.014 7.35777 106.262 8.58159 107.797 11.0293ZM96.549 20.8088C97.8173 22.0771 99.3749 22.7113 101.222 22.7113C103.069 22.7113 104.626 22.0771 105.895 20.8088C107.163 19.4959 107.797 17.9272 107.797 16.1026C107.797 14.2557 107.163 12.6981 105.895 11.4298C104.626 10.1392 103.069 9.49391 101.222 9.49391C99.3749 9.49391 97.8173 10.1392 96.549 11.4298C95.2807 12.6981 94.6465 14.2557 94.6465 16.1026C94.6465 17.9272 95.2807 19.4959 96.549 20.8088Z" fill="white"/>
</svg>
