<svg width="1433" height="33" viewBox="0 0 1433 33" fill="none" xmlns="http://www.w3.org/2000/svg">
<path d="M13.2164 0.896484L1.71995 8.39986L8.78079 13.0104L13.2164 10.0271V0.896484Z" fill="url(#paint0_linear_125_809)" fill-opacity="0.3"/>
<path d="M17.8331 23.6778L0 11.9255V20.9658L17.8331 32.8084V23.6778Z" fill="url(#paint1_linear_125_809)" fill-opacity="0.3"/>
<path d="M35.3599 0.896484L23.8634 8.39986L30.9242 13.0104L35.3599 10.0271V0.896484Z" fill="url(#paint2_linear_125_809)" fill-opacity="0.3"/>
<path d="M39.9766 23.6778L22.1434 11.9255V20.9658L39.9766 32.8084V23.6778Z" fill="url(#paint3_linear_125_809)" fill-opacity="0.3"/>
<path d="M57.5033 0.896484L46.0068 8.39986L53.0677 13.0104L57.5033 10.0271V0.896484Z" fill="url(#paint4_linear_125_809)" fill-opacity="0.3"/>
<path d="M62.12 23.6778L44.2869 11.9255V20.9658L62.12 32.8084V23.6778Z" fill="url(#paint5_linear_125_809)" fill-opacity="0.3"/>
<path d="M79.6467 0.896484L68.1502 8.39986L75.2111 13.0104L79.6467 10.0271V0.896484Z" fill="url(#paint6_linear_125_809)" fill-opacity="0.3"/>
<path d="M84.2634 23.6778L66.4303 11.9255V20.9658L84.2634 32.8084V23.6778Z" fill="url(#paint7_linear_125_809)" fill-opacity="0.3"/>
<path d="M101.79 0.896484L90.2937 8.39986L97.3545 13.0104L101.79 10.0271V0.896484Z" fill="url(#paint8_linear_125_809)" fill-opacity="0.3"/>
<path d="M106.407 23.6778L88.5737 11.9255V20.9658L106.407 32.8084V23.6778Z" fill="url(#paint9_linear_125_809)" fill-opacity="0.3"/>
<path d="M123.934 0.896484L112.437 8.39986L119.498 13.0104L123.934 10.0271V0.896484Z" fill="url(#paint10_linear_125_809)" fill-opacity="0.3"/>
<path d="M128.55 23.6778L110.717 11.9255V20.9658L128.55 32.8084V23.6778Z" fill="url(#paint11_linear_125_809)" fill-opacity="0.3"/>
<path d="M146.077 0.896484L134.581 8.39986L141.641 13.0104L146.077 10.0271V0.896484Z" fill="url(#paint12_linear_125_809)" fill-opacity="0.3"/>
<path d="M150.694 23.6778L132.861 11.9255V20.9658L150.694 32.8084V23.6778Z" fill="url(#paint13_linear_125_809)" fill-opacity="0.3"/>
<path d="M168.22 0.896484L156.724 8.39986L163.785 13.0104L168.22 10.0271V0.896484Z" fill="url(#paint14_linear_125_809)" fill-opacity="0.3"/>
<path d="M172.837 23.6778L155.004 11.9255V20.9658L172.837 32.8084V23.6778Z" fill="url(#paint15_linear_125_809)" fill-opacity="0.3"/>
<path d="M190.364 0.896484L178.867 8.39986L185.928 13.0104L190.364 10.0271V0.896484Z" fill="url(#paint16_linear_125_809)" fill-opacity="0.3"/>
<path d="M194.981 23.6778L177.147 11.9255V20.9658L194.981 32.8084V23.6778Z" fill="url(#paint17_linear_125_809)" fill-opacity="0.3"/>
<path d="M212.507 0.896484L201.011 8.39986L208.072 13.0104L212.507 10.0271V0.896484Z" fill="url(#paint18_linear_125_809)" fill-opacity="0.3"/>
<path d="M217.124 23.6778L199.291 11.9255V20.9658L217.124 32.8084V23.6778Z" fill="url(#paint19_linear_125_809)" fill-opacity="0.3"/>
<path d="M234.651 0.896484L223.154 8.39986L230.215 13.0104L234.651 10.0271V0.896484Z" fill="url(#paint20_linear_125_809)" fill-opacity="0.3"/>
<path d="M239.267 23.6778L221.434 11.9255V20.9658L239.267 32.8084V23.6778Z" fill="url(#paint21_linear_125_809)" fill-opacity="0.3"/>
<path d="M256.794 0.896484L245.298 8.39986L252.359 13.0104L256.794 10.0271V0.896484Z" fill="url(#paint22_linear_125_809)" fill-opacity="0.3"/>
<path d="M261.411 23.6778L243.578 11.9255V20.9658L261.411 32.8084V23.6778Z" fill="url(#paint23_linear_125_809)" fill-opacity="0.3"/>
<path d="M278.938 0.896484L267.441 8.39986L274.502 13.0104L278.938 10.0271V0.896484Z" fill="url(#paint24_linear_125_809)" fill-opacity="0.3"/>
<path d="M283.554 23.6778L265.721 11.9255V20.9658L283.554 32.8084V23.6778Z" fill="url(#paint25_linear_125_809)" fill-opacity="0.3"/>
<path d="M301.081 0.896484L289.585 8.39986L296.645 13.0104L301.081 10.0271V0.896484Z" fill="url(#paint26_linear_125_809)" fill-opacity="0.3"/>
<path d="M305.698 23.6778L287.865 11.9255V20.9658L305.698 32.8084V23.6778Z" fill="url(#paint27_linear_125_809)" fill-opacity="0.3"/>
<path d="M323.224 0.896484L311.728 8.39986L318.789 13.0104L323.224 10.0271V0.896484Z" fill="url(#paint28_linear_125_809)" fill-opacity="0.3"/>
<path d="M327.841 23.6778L310.008 11.9255V20.9658L327.841 32.8084V23.6778Z" fill="url(#paint29_linear_125_809)" fill-opacity="0.3"/>
<path d="M345.368 0.896484L333.871 8.39986L340.932 13.0104L345.368 10.0271V0.896484Z" fill="url(#paint30_linear_125_809)" fill-opacity="0.3"/>
<path d="M349.985 23.6778L332.151 11.9255V20.9658L349.985 32.8084V23.6778Z" fill="url(#paint31_linear_125_809)" fill-opacity="0.3"/>
<path d="M367.511 0.896484L356.015 8.39986L363.076 13.0104L367.511 10.0271V0.896484Z" fill="url(#paint32_linear_125_809)" fill-opacity="0.3"/>
<path d="M372.128 23.6778L354.295 11.9255V20.9658L372.128 32.8084V23.6778Z" fill="url(#paint33_linear_125_809)" fill-opacity="0.3"/>
<path d="M389.655 0.896484L378.158 8.39986L385.219 13.0104L389.655 10.0271V0.896484Z" fill="url(#paint34_linear_125_809)" fill-opacity="0.3"/>
<path d="M394.272 23.6778L376.438 11.9255V20.9658L394.272 32.8084V23.6778Z" fill="url(#paint35_linear_125_809)" fill-opacity="0.3"/>
<path d="M411.798 0.896484L400.302 8.39986L407.363 13.0104L411.798 10.0271V0.896484Z" fill="url(#paint36_linear_125_809)" fill-opacity="0.3"/>
<path d="M416.415 23.6778L398.582 11.9255V20.9658L416.415 32.8084V23.6778Z" fill="url(#paint37_linear_125_809)" fill-opacity="0.3"/>
<path d="M433.942 0.896484L422.445 8.39986L429.506 13.0104L433.942 10.0271V0.896484Z" fill="url(#paint38_linear_125_809)" fill-opacity="0.3"/>
<path d="M438.558 23.6778L420.725 11.9255V20.9658L438.558 32.8084V23.6778Z" fill="url(#paint39_linear_125_809)" fill-opacity="0.3"/>
<path d="M456.085 0.896484L444.589 8.39986L451.649 13.0104L456.085 10.0271V0.896484Z" fill="url(#paint40_linear_125_809)" fill-opacity="0.3"/>
<path d="M460.702 23.6778L442.869 11.9255V20.9658L460.702 32.8084V23.6778Z" fill="url(#paint41_linear_125_809)" fill-opacity="0.3"/>
<path d="M478.229 0.896484L466.732 8.39986L473.793 13.0104L478.229 10.0271V0.896484Z" fill="url(#paint42_linear_125_809)" fill-opacity="0.3"/>
<path d="M482.845 23.6778L465.012 11.9255V20.9658L482.845 32.8084V23.6778Z" fill="url(#paint43_linear_125_809)" fill-opacity="0.3"/>
<path d="M500.372 0.896484L488.875 8.39986L495.936 13.0104L500.372 10.0271V0.896484Z" fill="url(#paint44_linear_125_809)" fill-opacity="0.3"/>
<path d="M504.989 23.6778L487.156 11.9255V20.9658L504.989 32.8084V23.6778Z" fill="url(#paint45_linear_125_809)" fill-opacity="0.3"/>
<path d="M522.516 0.896484L511.019 8.39986L518.08 13.0104L522.516 10.0271V0.896484Z" fill="url(#paint46_linear_125_809)" fill-opacity="0.3"/>
<path d="M527.132 23.6778L509.299 11.9255V20.9658L527.132 32.8084V23.6778Z" fill="url(#paint47_linear_125_809)" fill-opacity="0.3"/>
<path d="M544.659 0.896484L533.162 8.39986L540.223 13.0104L544.659 10.0271V0.896484Z" fill="url(#paint48_linear_125_809)" fill-opacity="0.3"/>
<path d="M549.276 23.6778L531.442 11.9255V20.9658L549.276 32.8084V23.6778Z" fill="url(#paint49_linear_125_809)" fill-opacity="0.3"/>
<path d="M566.802 0.896484L555.306 8.39986L562.367 13.0104L566.802 10.0271V0.896484Z" fill="url(#paint50_linear_125_809)" fill-opacity="0.3"/>
<path d="M571.419 23.6778L553.586 11.9255V20.9658L571.419 32.8084V23.6778Z" fill="url(#paint51_linear_125_809)" fill-opacity="0.3"/>
<path d="M588.946 0.896484L577.449 8.39986L584.51 13.0104L588.946 10.0271V0.896484Z" fill="url(#paint52_linear_125_809)" fill-opacity="0.3"/>
<path d="M593.562 23.6778L575.729 11.9255V20.9658L593.562 32.8084V23.6778Z" fill="url(#paint53_linear_125_809)" fill-opacity="0.3"/>
<path d="M611.089 0.896484L599.593 8.39986L606.654 13.0104L611.089 10.0271V0.896484Z" fill="url(#paint54_linear_125_809)" fill-opacity="0.3"/>
<path d="M615.706 23.6778L597.873 11.9255V20.9658L615.706 32.8084V23.6778Z" fill="url(#paint55_linear_125_809)" fill-opacity="0.3"/>
<path d="M633.233 0.896484L621.736 8.39986L628.797 13.0104L633.233 10.0271V0.896484Z" fill="url(#paint56_linear_125_809)" fill-opacity="0.3"/>
<path d="M637.849 23.6778L620.016 11.9255V20.9658L637.849 32.8084V23.6778Z" fill="url(#paint57_linear_125_809)" fill-opacity="0.3"/>
<path d="M655.376 0.896484L643.88 8.39986L650.94 13.0104L655.376 10.0271V0.896484Z" fill="url(#paint58_linear_125_809)" fill-opacity="0.3"/>
<path d="M659.993 23.6778L642.16 11.9255V20.9658L659.993 32.8084V23.6778Z" fill="url(#paint59_linear_125_809)" fill-opacity="0.3"/>
<path d="M677.519 0.896484L666.023 8.39986L673.084 13.0104L677.519 10.0271V0.896484Z" fill="url(#paint60_linear_125_809)" fill-opacity="0.3"/>
<path d="M682.136 23.6778L664.303 11.9255V20.9658L682.136 32.8084V23.6778Z" fill="url(#paint61_linear_125_809)" fill-opacity="0.3"/>
<path d="M699.663 0.896484L688.166 8.39986L695.227 13.0104L699.663 10.0271V0.896484Z" fill="url(#paint62_linear_125_809)" fill-opacity="0.3"/>
<path d="M704.28 23.6778L686.447 11.9255V20.9658L704.28 32.8084V23.6778Z" fill="url(#paint63_linear_125_809)" fill-opacity="0.3"/>
<path d="M721.806 0.896484L710.31 8.39986L717.371 13.0104L721.806 10.0271V0.896484Z" fill="url(#paint64_linear_125_809)" fill-opacity="0.3"/>
<path d="M726.423 23.6778L708.59 11.9255V20.9658L726.423 32.8084V23.6778Z" fill="url(#paint65_linear_125_809)" fill-opacity="0.3"/>
<path d="M743.95 0.896484L732.453 8.39986L739.514 13.0104L743.95 10.0271V0.896484Z" fill="url(#paint66_linear_125_809)" fill-opacity="0.3"/>
<path d="M748.567 23.6778L730.733 11.9255V20.9658L748.567 32.8084V23.6778Z" fill="url(#paint67_linear_125_809)" fill-opacity="0.3"/>
<path d="M766.093 0.896484L754.597 8.39986L761.658 13.0104L766.093 10.0271V0.896484Z" fill="url(#paint68_linear_125_809)" fill-opacity="0.3"/>
<path d="M770.71 23.6778L752.877 11.9255V20.9658L770.71 32.8084V23.6778Z" fill="url(#paint69_linear_125_809)" fill-opacity="0.3"/>
<path d="M788.237 0.896484L776.74 8.39986L783.801 13.0104L788.237 10.0271V0.896484Z" fill="url(#paint70_linear_125_809)" fill-opacity="0.3"/>
<path d="M792.853 23.6778L775.02 11.9255V20.9658L792.853 32.8084V23.6778Z" fill="url(#paint71_linear_125_809)" fill-opacity="0.3"/>
<path d="M810.38 0.896484L798.884 8.39986L805.944 13.0104L810.38 10.0271V0.896484Z" fill="url(#paint72_linear_125_809)" fill-opacity="0.3"/>
<path d="M814.997 23.6778L797.164 11.9255V20.9658L814.997 32.8084V23.6778Z" fill="url(#paint73_linear_125_809)" fill-opacity="0.3"/>
<path d="M832.524 0.896484L821.027 8.39986L828.088 13.0104L832.524 10.0271V0.896484Z" fill="url(#paint74_linear_125_809)" fill-opacity="0.3"/>
<path d="M837.14 23.6778L819.307 11.9255V20.9658L837.14 32.8084V23.6778Z" fill="url(#paint75_linear_125_809)" fill-opacity="0.3"/>
<path d="M854.667 0.896484L843.171 8.39986L850.231 13.0104L854.667 10.0271V0.896484Z" fill="url(#paint76_linear_125_809)" fill-opacity="0.3"/>
<path d="M859.284 23.6778L841.451 11.9255V20.9658L859.284 32.8084V23.6778Z" fill="url(#paint77_linear_125_809)" fill-opacity="0.3"/>
<path d="M876.81 0.896484L865.314 8.39986L872.375 13.0104L876.81 10.0271V0.896484Z" fill="url(#paint78_linear_125_809)" fill-opacity="0.3"/>
<path d="M881.427 23.6778L863.594 11.9255V20.9658L881.427 32.8084V23.6778Z" fill="url(#paint79_linear_125_809)" fill-opacity="0.3"/>
<path d="M898.954 0.896484L887.457 8.39986L894.518 13.0104L898.954 10.0271V0.896484Z" fill="url(#paint80_linear_125_809)" fill-opacity="0.3"/>
<path d="M903.571 23.6778L885.737 11.9255V20.9658L903.571 32.8084V23.6778Z" fill="url(#paint81_linear_125_809)" fill-opacity="0.3"/>
<path d="M921.097 0.896484L909.601 8.39986L916.662 13.0104L921.097 10.0271V0.896484Z" fill="url(#paint82_linear_125_809)" fill-opacity="0.3"/>
<path d="M925.714 23.6778L907.881 11.9255V20.9658L925.714 32.8084V23.6778Z" fill="url(#paint83_linear_125_809)" fill-opacity="0.3"/>
<path d="M943.241 0.896484L931.744 8.39986L938.805 13.0104L943.241 10.0271V0.896484Z" fill="url(#paint84_linear_125_809)" fill-opacity="0.3"/>
<path d="M947.857 23.6778L930.024 11.9255V20.9658L947.857 32.8084V23.6778Z" fill="url(#paint85_linear_125_809)" fill-opacity="0.3"/>
<path d="M965.384 0.896484L953.888 8.39986L960.949 13.0104L965.384 10.0271V0.896484Z" fill="url(#paint86_linear_125_809)" fill-opacity="0.3"/>
<path d="M970.001 23.6778L952.168 11.9255V20.9658L970.001 32.8084V23.6778Z" fill="url(#paint87_linear_125_809)" fill-opacity="0.3"/>
<path d="M987.528 0.896484L976.031 8.39986L983.092 13.0104L987.528 10.0271V0.896484Z" fill="url(#paint88_linear_125_809)" fill-opacity="0.3"/>
<path d="M992.144 23.6778L974.311 11.9255V20.9658L992.144 32.8084V23.6778Z" fill="url(#paint89_linear_125_809)" fill-opacity="0.3"/>
<path d="M1009.67 0.896484L998.175 8.39986L1005.24 13.0104L1009.67 10.0271V0.896484Z" fill="url(#paint90_linear_125_809)" fill-opacity="0.3"/>
<path d="M1014.29 23.6778L996.455 11.9255V20.9658L1014.29 32.8084V23.6778Z" fill="url(#paint91_linear_125_809)" fill-opacity="0.3"/>
<path d="M1031.81 0.896484L1020.32 8.39986L1027.38 13.0104L1031.81 10.0271V0.896484Z" fill="url(#paint92_linear_125_809)" fill-opacity="0.3"/>
<path d="M1036.43 23.6778L1018.6 11.9255V20.9658L1036.43 32.8084V23.6778Z" fill="url(#paint93_linear_125_809)" fill-opacity="0.3"/>
<path d="M1053.96 0.896484L1042.46 8.39986L1049.52 13.0104L1053.96 10.0271V0.896484Z" fill="url(#paint94_linear_125_809)" fill-opacity="0.3"/>
<path d="M1058.57 23.6778L1040.74 11.9255V20.9658L1058.57 32.8084V23.6778Z" fill="url(#paint95_linear_125_809)" fill-opacity="0.3"/>
<path d="M1076.1 0.896484L1064.6 8.39986L1071.67 13.0104L1076.1 10.0271V0.896484Z" fill="url(#paint96_linear_125_809)" fill-opacity="0.3"/>
<path d="M1080.72 23.6778L1062.88 11.9255V20.9658L1080.72 32.8084V23.6778Z" fill="url(#paint97_linear_125_809)" fill-opacity="0.3"/>
<path d="M1098.24 0.896484L1086.75 8.39986L1093.81 13.0104L1098.24 10.0271V0.896484Z" fill="url(#paint98_linear_125_809)" fill-opacity="0.3"/>
<path d="M1102.86 23.6778L1085.03 11.9255V20.9658L1102.86 32.8084V23.6778Z" fill="url(#paint99_linear_125_809)" fill-opacity="0.3"/>
<path d="M1120.39 0.896484L1108.89 8.39986L1115.95 13.0104L1120.39 10.0271V0.896484Z" fill="url(#paint100_linear_125_809)" fill-opacity="0.3"/>
<path d="M1125 23.6778L1107.17 11.9255V20.9658L1125 32.8084V23.6778Z" fill="url(#paint101_linear_125_809)" fill-opacity="0.3"/>
<path d="M1142.53 0.896484L1131.04 8.39986L1138.1 13.0104L1142.53 10.0271V0.896484Z" fill="url(#paint102_linear_125_809)" fill-opacity="0.3"/>
<path d="M1147.15 23.6778L1129.32 11.9255V20.9658L1147.15 32.8084V23.6778Z" fill="url(#paint103_linear_125_809)" fill-opacity="0.3"/>
<path d="M1164.68 0.896484L1153.18 8.39986L1160.24 13.0104L1164.68 10.0271V0.896484Z" fill="url(#paint104_linear_125_809)" fill-opacity="0.3"/>
<path d="M1169.29 23.6778L1151.46 11.9255V20.9658L1169.29 32.8084V23.6778Z" fill="url(#paint105_linear_125_809)" fill-opacity="0.3"/>
<path d="M1186.82 0.896484L1175.32 8.39986L1182.38 13.0104L1186.82 10.0271V0.896484Z" fill="url(#paint106_linear_125_809)" fill-opacity="0.3"/>
<path d="M1191.44 23.6778L1173.6 11.9255V20.9658L1191.44 32.8084V23.6778Z" fill="url(#paint107_linear_125_809)" fill-opacity="0.3"/>
<path d="M1208.96 0.896484L1197.47 8.39986L1204.53 13.0104L1208.96 10.0271V0.896484Z" fill="url(#paint108_linear_125_809)" fill-opacity="0.3"/>
<path d="M1213.58 23.6778L1195.75 11.9255V20.9658L1213.58 32.8084V23.6778Z" fill="url(#paint109_linear_125_809)" fill-opacity="0.3"/>
<path d="M1231.11 0.896484L1219.61 8.39986L1226.67 13.0104L1231.11 10.0271V0.896484Z" fill="url(#paint110_linear_125_809)" fill-opacity="0.3"/>
<path d="M1235.72 23.6778L1217.89 11.9255V20.9658L1235.72 32.8084V23.6778Z" fill="url(#paint111_linear_125_809)" fill-opacity="0.3"/>
<path d="M1253.25 0.896484L1241.75 8.39986L1248.81 13.0104L1253.25 10.0271V0.896484Z" fill="url(#paint112_linear_125_809)" fill-opacity="0.3"/>
<path d="M1257.87 23.6778L1240.03 11.9255V20.9658L1257.87 32.8084V23.6778Z" fill="url(#paint113_linear_125_809)" fill-opacity="0.3"/>
<path d="M1275.39 0.896484L1263.9 8.39986L1270.96 13.0104L1275.39 10.0271V0.896484Z" fill="url(#paint114_linear_125_809)" fill-opacity="0.3"/>
<path d="M1280.01 23.6778L1262.18 11.9255V20.9658L1280.01 32.8084V23.6778Z" fill="url(#paint115_linear_125_809)" fill-opacity="0.3"/>
<path d="M1297.54 0.896484L1286.04 8.39986L1293.1 13.0104L1297.54 10.0271V0.896484Z" fill="url(#paint116_linear_125_809)" fill-opacity="0.3"/>
<path d="M1302.15 23.6778L1284.32 11.9255V20.9658L1302.15 32.8084V23.6778Z" fill="url(#paint117_linear_125_809)" fill-opacity="0.3"/>
<path d="M1319.68 0.896484L1308.18 8.39986L1315.24 13.0104L1319.68 10.0271V0.896484Z" fill="url(#paint118_linear_125_809)" fill-opacity="0.3"/>
<path d="M1324.3 23.6778L1306.46 11.9255V20.9658L1324.3 32.8084V23.6778Z" fill="url(#paint119_linear_125_809)" fill-opacity="0.3"/>
<path d="M1341.82 0.896484L1330.33 8.39986L1337.39 13.0104L1341.82 10.0271V0.896484Z" fill="url(#paint120_linear_125_809)" fill-opacity="0.3"/>
<path d="M1346.44 23.6778L1328.61 11.9255V20.9658L1346.44 32.8084V23.6778Z" fill="url(#paint121_linear_125_809)" fill-opacity="0.3"/>
<path d="M1363.97 0.896484L1352.47 8.39986L1359.53 13.0104L1363.97 10.0271V0.896484Z" fill="url(#paint122_linear_125_809)" fill-opacity="0.3"/>
<path d="M1368.58 23.6778L1350.75 11.9255V20.9658L1368.58 32.8084V23.6778Z" fill="url(#paint123_linear_125_809)" fill-opacity="0.3"/>
<path d="M1386.11 0.896484L1374.61 8.39986L1381.67 13.0104L1386.11 10.0271V0.896484Z" fill="url(#paint124_linear_125_809)" fill-opacity="0.3"/>
<path d="M1390.73 23.6778L1372.89 11.9255V20.9658L1390.73 32.8084V23.6778Z" fill="url(#paint125_linear_125_809)" fill-opacity="0.3"/>
<path d="M1408.25 0.896484L1396.76 8.39986L1403.82 13.0104L1408.25 10.0271V0.896484Z" fill="url(#paint126_linear_125_809)" fill-opacity="0.3"/>
<path d="M1412.87 23.6778L1395.04 11.9255V20.9658L1412.87 32.8084V23.6778Z" fill="url(#paint127_linear_125_809)" fill-opacity="0.3"/>
<path d="M1428.38 0.896484L1416.89 8.39986L1423.95 13.0104L1428.38 10.0271V0.896484Z" fill="url(#paint128_linear_125_809)" fill-opacity="0.3"/>
<path d="M1433 23.6778L1415.17 11.9255V20.9658L1433 32.8084V23.6778Z" fill="url(#paint129_linear_125_809)" fill-opacity="0.3"/>
<defs>
<linearGradient id="paint0_linear_125_809" x1="8.91657" y1="0.896484" x2="8.91657" y2="32.8084" gradientUnits="userSpaceOnUse">
<stop stop-color="#FDD961"/>
<stop offset="1" stop-color="white" stop-opacity="0"/>
</linearGradient>
<linearGradient id="paint1_linear_125_809" x1="8.91657" y1="0.896484" x2="8.91657" y2="32.8084" gradientUnits="userSpaceOnUse">
<stop stop-color="#FDD961"/>
<stop offset="1" stop-color="white" stop-opacity="0"/>
</linearGradient>
<linearGradient id="paint2_linear_125_809" x1="31.06" y1="0.896484" x2="31.06" y2="32.8084" gradientUnits="userSpaceOnUse">
<stop stop-color="#FDD961"/>
<stop offset="1" stop-color="white" stop-opacity="0"/>
</linearGradient>
<linearGradient id="paint3_linear_125_809" x1="31.06" y1="0.896484" x2="31.06" y2="32.8084" gradientUnits="userSpaceOnUse">
<stop stop-color="#FDD961"/>
<stop offset="1" stop-color="white" stop-opacity="0"/>
</linearGradient>
<linearGradient id="paint4_linear_125_809" x1="53.2034" y1="0.896484" x2="53.2034" y2="32.8084" gradientUnits="userSpaceOnUse">
<stop stop-color="#FDD961"/>
<stop offset="1" stop-color="white" stop-opacity="0"/>
</linearGradient>
<linearGradient id="paint5_linear_125_809" x1="53.2034" y1="0.896484" x2="53.2034" y2="32.8084" gradientUnits="userSpaceOnUse">
<stop stop-color="#FDD961"/>
<stop offset="1" stop-color="white" stop-opacity="0"/>
</linearGradient>
<linearGradient id="paint6_linear_125_809" x1="75.3469" y1="0.896484" x2="75.3469" y2="32.8084" gradientUnits="userSpaceOnUse">
<stop stop-color="#FDD961"/>
<stop offset="1" stop-color="white" stop-opacity="0"/>
</linearGradient>
<linearGradient id="paint7_linear_125_809" x1="75.3469" y1="0.896484" x2="75.3469" y2="32.8084" gradientUnits="userSpaceOnUse">
<stop stop-color="#FDD961"/>
<stop offset="1" stop-color="white" stop-opacity="0"/>
</linearGradient>
<linearGradient id="paint8_linear_125_809" x1="97.4903" y1="0.896484" x2="97.4903" y2="32.8084" gradientUnits="userSpaceOnUse">
<stop stop-color="#FDD961"/>
<stop offset="1" stop-color="white" stop-opacity="0"/>
</linearGradient>
<linearGradient id="paint9_linear_125_809" x1="97.4903" y1="0.896484" x2="97.4903" y2="32.8084" gradientUnits="userSpaceOnUse">
<stop stop-color="#FDD961"/>
<stop offset="1" stop-color="white" stop-opacity="0"/>
</linearGradient>
<linearGradient id="paint10_linear_125_809" x1="119.634" y1="0.896484" x2="119.634" y2="32.8084" gradientUnits="userSpaceOnUse">
<stop stop-color="#FDD961"/>
<stop offset="1" stop-color="white" stop-opacity="0"/>
</linearGradient>
<linearGradient id="paint11_linear_125_809" x1="119.634" y1="0.896484" x2="119.634" y2="32.8084" gradientUnits="userSpaceOnUse">
<stop stop-color="#FDD961"/>
<stop offset="1" stop-color="white" stop-opacity="0"/>
</linearGradient>
<linearGradient id="paint12_linear_125_809" x1="141.777" y1="0.896484" x2="141.777" y2="32.8084" gradientUnits="userSpaceOnUse">
<stop stop-color="#FDD961"/>
<stop offset="1" stop-color="white" stop-opacity="0"/>
</linearGradient>
<linearGradient id="paint13_linear_125_809" x1="141.777" y1="0.896484" x2="141.777" y2="32.8084" gradientUnits="userSpaceOnUse">
<stop stop-color="#FDD961"/>
<stop offset="1" stop-color="white" stop-opacity="0"/>
</linearGradient>
<linearGradient id="paint14_linear_125_809" x1="163.921" y1="0.896484" x2="163.921" y2="32.8084" gradientUnits="userSpaceOnUse">
<stop stop-color="#FDD961"/>
<stop offset="1" stop-color="white" stop-opacity="0"/>
</linearGradient>
<linearGradient id="paint15_linear_125_809" x1="163.921" y1="0.896484" x2="163.921" y2="32.8084" gradientUnits="userSpaceOnUse">
<stop stop-color="#FDD961"/>
<stop offset="1" stop-color="white" stop-opacity="0"/>
</linearGradient>
<linearGradient id="paint16_linear_125_809" x1="186.064" y1="0.896484" x2="186.064" y2="32.8084" gradientUnits="userSpaceOnUse">
<stop stop-color="#FDD961"/>
<stop offset="1" stop-color="white" stop-opacity="0"/>
</linearGradient>
<linearGradient id="paint17_linear_125_809" x1="186.064" y1="0.896484" x2="186.064" y2="32.8084" gradientUnits="userSpaceOnUse">
<stop stop-color="#FDD961"/>
<stop offset="1" stop-color="white" stop-opacity="0"/>
</linearGradient>
<linearGradient id="paint18_linear_125_809" x1="208.207" y1="0.896484" x2="208.207" y2="32.8084" gradientUnits="userSpaceOnUse">
<stop stop-color="#FDD961"/>
<stop offset="1" stop-color="white" stop-opacity="0"/>
</linearGradient>
<linearGradient id="paint19_linear_125_809" x1="208.207" y1="0.896484" x2="208.207" y2="32.8084" gradientUnits="userSpaceOnUse">
<stop stop-color="#FDD961"/>
<stop offset="1" stop-color="white" stop-opacity="0"/>
</linearGradient>
<linearGradient id="paint20_linear_125_809" x1="230.351" y1="0.896484" x2="230.351" y2="32.8084" gradientUnits="userSpaceOnUse">
<stop stop-color="#FDD961"/>
<stop offset="1" stop-color="white" stop-opacity="0"/>
</linearGradient>
<linearGradient id="paint21_linear_125_809" x1="230.351" y1="0.896484" x2="230.351" y2="32.8084" gradientUnits="userSpaceOnUse">
<stop stop-color="#FDD961"/>
<stop offset="1" stop-color="white" stop-opacity="0"/>
</linearGradient>
<linearGradient id="paint22_linear_125_809" x1="252.494" y1="0.896484" x2="252.494" y2="32.8084" gradientUnits="userSpaceOnUse">
<stop stop-color="#FDD961"/>
<stop offset="1" stop-color="white" stop-opacity="0"/>
</linearGradient>
<linearGradient id="paint23_linear_125_809" x1="252.494" y1="0.896484" x2="252.494" y2="32.8084" gradientUnits="userSpaceOnUse">
<stop stop-color="#FDD961"/>
<stop offset="1" stop-color="white" stop-opacity="0"/>
</linearGradient>
<linearGradient id="paint24_linear_125_809" x1="274.638" y1="0.896484" x2="274.638" y2="32.8084" gradientUnits="userSpaceOnUse">
<stop stop-color="#FDD961"/>
<stop offset="1" stop-color="white" stop-opacity="0"/>
</linearGradient>
<linearGradient id="paint25_linear_125_809" x1="274.638" y1="0.896484" x2="274.638" y2="32.8084" gradientUnits="userSpaceOnUse">
<stop stop-color="#FDD961"/>
<stop offset="1" stop-color="white" stop-opacity="0"/>
</linearGradient>
<linearGradient id="paint26_linear_125_809" x1="296.781" y1="0.896484" x2="296.781" y2="32.8084" gradientUnits="userSpaceOnUse">
<stop stop-color="#FDD961"/>
<stop offset="1" stop-color="white" stop-opacity="0"/>
</linearGradient>
<linearGradient id="paint27_linear_125_809" x1="296.781" y1="0.896484" x2="296.781" y2="32.8084" gradientUnits="userSpaceOnUse">
<stop stop-color="#FDD961"/>
<stop offset="1" stop-color="white" stop-opacity="0"/>
</linearGradient>
<linearGradient id="paint28_linear_125_809" x1="318.925" y1="0.896484" x2="318.925" y2="32.8084" gradientUnits="userSpaceOnUse">
<stop stop-color="#FDD961"/>
<stop offset="1" stop-color="white" stop-opacity="0"/>
</linearGradient>
<linearGradient id="paint29_linear_125_809" x1="318.925" y1="0.896484" x2="318.925" y2="32.8084" gradientUnits="userSpaceOnUse">
<stop stop-color="#FDD961"/>
<stop offset="1" stop-color="white" stop-opacity="0"/>
</linearGradient>
<linearGradient id="paint30_linear_125_809" x1="341.068" y1="0.896484" x2="341.068" y2="32.8084" gradientUnits="userSpaceOnUse">
<stop stop-color="#FDD961"/>
<stop offset="1" stop-color="white" stop-opacity="0"/>
</linearGradient>
<linearGradient id="paint31_linear_125_809" x1="341.068" y1="0.896484" x2="341.068" y2="32.8084" gradientUnits="userSpaceOnUse">
<stop stop-color="#FDD961"/>
<stop offset="1" stop-color="white" stop-opacity="0"/>
</linearGradient>
<linearGradient id="paint32_linear_125_809" x1="363.211" y1="0.896484" x2="363.211" y2="32.8084" gradientUnits="userSpaceOnUse">
<stop stop-color="#FDD961"/>
<stop offset="1" stop-color="white" stop-opacity="0"/>
</linearGradient>
<linearGradient id="paint33_linear_125_809" x1="363.211" y1="0.896484" x2="363.211" y2="32.8084" gradientUnits="userSpaceOnUse">
<stop stop-color="#FDD961"/>
<stop offset="1" stop-color="white" stop-opacity="0"/>
</linearGradient>
<linearGradient id="paint34_linear_125_809" x1="385.355" y1="0.896484" x2="385.355" y2="32.8084" gradientUnits="userSpaceOnUse">
<stop stop-color="#FDD961"/>
<stop offset="1" stop-color="white" stop-opacity="0"/>
</linearGradient>
<linearGradient id="paint35_linear_125_809" x1="385.355" y1="0.896484" x2="385.355" y2="32.8084" gradientUnits="userSpaceOnUse">
<stop stop-color="#FDD961"/>
<stop offset="1" stop-color="white" stop-opacity="0"/>
</linearGradient>
<linearGradient id="paint36_linear_125_809" x1="407.498" y1="0.896484" x2="407.498" y2="32.8084" gradientUnits="userSpaceOnUse">
<stop stop-color="#FDD961"/>
<stop offset="1" stop-color="white" stop-opacity="0"/>
</linearGradient>
<linearGradient id="paint37_linear_125_809" x1="407.498" y1="0.896484" x2="407.498" y2="32.8084" gradientUnits="userSpaceOnUse">
<stop stop-color="#FDD961"/>
<stop offset="1" stop-color="white" stop-opacity="0"/>
</linearGradient>
<linearGradient id="paint38_linear_125_809" x1="429.642" y1="0.896484" x2="429.642" y2="32.8084" gradientUnits="userSpaceOnUse">
<stop stop-color="#FDD961"/>
<stop offset="1" stop-color="white" stop-opacity="0"/>
</linearGradient>
<linearGradient id="paint39_linear_125_809" x1="429.642" y1="0.896484" x2="429.642" y2="32.8084" gradientUnits="userSpaceOnUse">
<stop stop-color="#FDD961"/>
<stop offset="1" stop-color="white" stop-opacity="0"/>
</linearGradient>
<linearGradient id="paint40_linear_125_809" x1="451.785" y1="0.896484" x2="451.785" y2="32.8084" gradientUnits="userSpaceOnUse">
<stop stop-color="#FDD961"/>
<stop offset="1" stop-color="white" stop-opacity="0"/>
</linearGradient>
<linearGradient id="paint41_linear_125_809" x1="451.785" y1="0.896484" x2="451.785" y2="32.8084" gradientUnits="userSpaceOnUse">
<stop stop-color="#FDD961"/>
<stop offset="1" stop-color="white" stop-opacity="0"/>
</linearGradient>
<linearGradient id="paint42_linear_125_809" x1="473.929" y1="0.896484" x2="473.929" y2="32.8084" gradientUnits="userSpaceOnUse">
<stop stop-color="#FDD961"/>
<stop offset="1" stop-color="white" stop-opacity="0"/>
</linearGradient>
<linearGradient id="paint43_linear_125_809" x1="473.929" y1="0.896484" x2="473.929" y2="32.8084" gradientUnits="userSpaceOnUse">
<stop stop-color="#FDD961"/>
<stop offset="1" stop-color="white" stop-opacity="0"/>
</linearGradient>
<linearGradient id="paint44_linear_125_809" x1="496.072" y1="0.896484" x2="496.072" y2="32.8084" gradientUnits="userSpaceOnUse">
<stop stop-color="#FDD961"/>
<stop offset="1" stop-color="white" stop-opacity="0"/>
</linearGradient>
<linearGradient id="paint45_linear_125_809" x1="496.072" y1="0.896484" x2="496.072" y2="32.8084" gradientUnits="userSpaceOnUse">
<stop stop-color="#FDD961"/>
<stop offset="1" stop-color="white" stop-opacity="0"/>
</linearGradient>
<linearGradient id="paint46_linear_125_809" x1="518.216" y1="0.896484" x2="518.216" y2="32.8084" gradientUnits="userSpaceOnUse">
<stop stop-color="#FDD961"/>
<stop offset="1" stop-color="white" stop-opacity="0"/>
</linearGradient>
<linearGradient id="paint47_linear_125_809" x1="518.216" y1="0.896484" x2="518.216" y2="32.8084" gradientUnits="userSpaceOnUse">
<stop stop-color="#FDD961"/>
<stop offset="1" stop-color="white" stop-opacity="0"/>
</linearGradient>
<linearGradient id="paint48_linear_125_809" x1="540.359" y1="0.896484" x2="540.359" y2="32.8084" gradientUnits="userSpaceOnUse">
<stop stop-color="#FDD961"/>
<stop offset="1" stop-color="white" stop-opacity="0"/>
</linearGradient>
<linearGradient id="paint49_linear_125_809" x1="540.359" y1="0.896484" x2="540.359" y2="32.8084" gradientUnits="userSpaceOnUse">
<stop stop-color="#FDD961"/>
<stop offset="1" stop-color="white" stop-opacity="0"/>
</linearGradient>
<linearGradient id="paint50_linear_125_809" x1="562.503" y1="0.896484" x2="562.503" y2="32.8084" gradientUnits="userSpaceOnUse">
<stop stop-color="#FDD961"/>
<stop offset="1" stop-color="white" stop-opacity="0"/>
</linearGradient>
<linearGradient id="paint51_linear_125_809" x1="562.503" y1="0.896484" x2="562.503" y2="32.8084" gradientUnits="userSpaceOnUse">
<stop stop-color="#FDD961"/>
<stop offset="1" stop-color="white" stop-opacity="0"/>
</linearGradient>
<linearGradient id="paint52_linear_125_809" x1="584.646" y1="0.896484" x2="584.646" y2="32.8084" gradientUnits="userSpaceOnUse">
<stop stop-color="#FDD961"/>
<stop offset="1" stop-color="white" stop-opacity="0"/>
</linearGradient>
<linearGradient id="paint53_linear_125_809" x1="584.646" y1="0.896484" x2="584.646" y2="32.8084" gradientUnits="userSpaceOnUse">
<stop stop-color="#FDD961"/>
<stop offset="1" stop-color="white" stop-opacity="0"/>
</linearGradient>
<linearGradient id="paint54_linear_125_809" x1="606.789" y1="0.896484" x2="606.789" y2="32.8084" gradientUnits="userSpaceOnUse">
<stop stop-color="#FDD961"/>
<stop offset="1" stop-color="white" stop-opacity="0"/>
</linearGradient>
<linearGradient id="paint55_linear_125_809" x1="606.789" y1="0.896484" x2="606.789" y2="32.8084" gradientUnits="userSpaceOnUse">
<stop stop-color="#FDD961"/>
<stop offset="1" stop-color="white" stop-opacity="0"/>
</linearGradient>
<linearGradient id="paint56_linear_125_809" x1="628.933" y1="0.896484" x2="628.933" y2="32.8084" gradientUnits="userSpaceOnUse">
<stop stop-color="#FDD961"/>
<stop offset="1" stop-color="white" stop-opacity="0"/>
</linearGradient>
<linearGradient id="paint57_linear_125_809" x1="628.933" y1="0.896484" x2="628.933" y2="32.8084" gradientUnits="userSpaceOnUse">
<stop stop-color="#FDD961"/>
<stop offset="1" stop-color="white" stop-opacity="0"/>
</linearGradient>
<linearGradient id="paint58_linear_125_809" x1="651.076" y1="0.896484" x2="651.076" y2="32.8084" gradientUnits="userSpaceOnUse">
<stop stop-color="#FDD961"/>
<stop offset="1" stop-color="white" stop-opacity="0"/>
</linearGradient>
<linearGradient id="paint59_linear_125_809" x1="651.076" y1="0.896484" x2="651.076" y2="32.8084" gradientUnits="userSpaceOnUse">
<stop stop-color="#FDD961"/>
<stop offset="1" stop-color="white" stop-opacity="0"/>
</linearGradient>
<linearGradient id="paint60_linear_125_809" x1="673.22" y1="0.896484" x2="673.22" y2="32.8084" gradientUnits="userSpaceOnUse">
<stop stop-color="#FDD961"/>
<stop offset="1" stop-color="white" stop-opacity="0"/>
</linearGradient>
<linearGradient id="paint61_linear_125_809" x1="673.22" y1="0.896484" x2="673.22" y2="32.8084" gradientUnits="userSpaceOnUse">
<stop stop-color="#FDD961"/>
<stop offset="1" stop-color="white" stop-opacity="0"/>
</linearGradient>
<linearGradient id="paint62_linear_125_809" x1="695.363" y1="0.896484" x2="695.363" y2="32.8084" gradientUnits="userSpaceOnUse">
<stop stop-color="#FDD961"/>
<stop offset="1" stop-color="white" stop-opacity="0"/>
</linearGradient>
<linearGradient id="paint63_linear_125_809" x1="695.363" y1="0.896484" x2="695.363" y2="32.8084" gradientUnits="userSpaceOnUse">
<stop stop-color="#FDD961"/>
<stop offset="1" stop-color="white" stop-opacity="0"/>
</linearGradient>
<linearGradient id="paint64_linear_125_809" x1="717.507" y1="0.896484" x2="717.507" y2="32.8084" gradientUnits="userSpaceOnUse">
<stop stop-color="#FDD961"/>
<stop offset="1" stop-color="white" stop-opacity="0"/>
</linearGradient>
<linearGradient id="paint65_linear_125_809" x1="717.507" y1="0.896484" x2="717.507" y2="32.8084" gradientUnits="userSpaceOnUse">
<stop stop-color="#FDD961"/>
<stop offset="1" stop-color="white" stop-opacity="0"/>
</linearGradient>
<linearGradient id="paint66_linear_125_809" x1="739.65" y1="0.896484" x2="739.65" y2="32.8084" gradientUnits="userSpaceOnUse">
<stop stop-color="#FDD961"/>
<stop offset="1" stop-color="white" stop-opacity="0"/>
</linearGradient>
<linearGradient id="paint67_linear_125_809" x1="739.65" y1="0.896484" x2="739.65" y2="32.8084" gradientUnits="userSpaceOnUse">
<stop stop-color="#FDD961"/>
<stop offset="1" stop-color="white" stop-opacity="0"/>
</linearGradient>
<linearGradient id="paint68_linear_125_809" x1="761.793" y1="0.896484" x2="761.793" y2="32.8084" gradientUnits="userSpaceOnUse">
<stop stop-color="#FDD961"/>
<stop offset="1" stop-color="white" stop-opacity="0"/>
</linearGradient>
<linearGradient id="paint69_linear_125_809" x1="761.793" y1="0.896484" x2="761.793" y2="32.8084" gradientUnits="userSpaceOnUse">
<stop stop-color="#FDD961"/>
<stop offset="1" stop-color="white" stop-opacity="0"/>
</linearGradient>
<linearGradient id="paint70_linear_125_809" x1="783.937" y1="0.896484" x2="783.937" y2="32.8084" gradientUnits="userSpaceOnUse">
<stop stop-color="#FDD961"/>
<stop offset="1" stop-color="white" stop-opacity="0"/>
</linearGradient>
<linearGradient id="paint71_linear_125_809" x1="783.937" y1="0.896484" x2="783.937" y2="32.8084" gradientUnits="userSpaceOnUse">
<stop stop-color="#FDD961"/>
<stop offset="1" stop-color="white" stop-opacity="0"/>
</linearGradient>
<linearGradient id="paint72_linear_125_809" x1="806.08" y1="0.896484" x2="806.08" y2="32.8084" gradientUnits="userSpaceOnUse">
<stop stop-color="#FDD961"/>
<stop offset="1" stop-color="white" stop-opacity="0"/>
</linearGradient>
<linearGradient id="paint73_linear_125_809" x1="806.08" y1="0.896484" x2="806.08" y2="32.8084" gradientUnits="userSpaceOnUse">
<stop stop-color="#FDD961"/>
<stop offset="1" stop-color="white" stop-opacity="0"/>
</linearGradient>
<linearGradient id="paint74_linear_125_809" x1="828.224" y1="0.896484" x2="828.224" y2="32.8084" gradientUnits="userSpaceOnUse">
<stop stop-color="#FDD961"/>
<stop offset="1" stop-color="white" stop-opacity="0"/>
</linearGradient>
<linearGradient id="paint75_linear_125_809" x1="828.224" y1="0.896484" x2="828.224" y2="32.8084" gradientUnits="userSpaceOnUse">
<stop stop-color="#FDD961"/>
<stop offset="1" stop-color="white" stop-opacity="0"/>
</linearGradient>
<linearGradient id="paint76_linear_125_809" x1="850.367" y1="0.896484" x2="850.367" y2="32.8084" gradientUnits="userSpaceOnUse">
<stop stop-color="#FDD961"/>
<stop offset="1" stop-color="white" stop-opacity="0"/>
</linearGradient>
<linearGradient id="paint77_linear_125_809" x1="850.367" y1="0.896484" x2="850.367" y2="32.8084" gradientUnits="userSpaceOnUse">
<stop stop-color="#FDD961"/>
<stop offset="1" stop-color="white" stop-opacity="0"/>
</linearGradient>
<linearGradient id="paint78_linear_125_809" x1="872.511" y1="0.896484" x2="872.511" y2="32.8084" gradientUnits="userSpaceOnUse">
<stop stop-color="#FDD961"/>
<stop offset="1" stop-color="white" stop-opacity="0"/>
</linearGradient>
<linearGradient id="paint79_linear_125_809" x1="872.511" y1="0.896484" x2="872.511" y2="32.8084" gradientUnits="userSpaceOnUse">
<stop stop-color="#FDD961"/>
<stop offset="1" stop-color="white" stop-opacity="0"/>
</linearGradient>
<linearGradient id="paint80_linear_125_809" x1="894.654" y1="0.896484" x2="894.654" y2="32.8084" gradientUnits="userSpaceOnUse">
<stop stop-color="#FDD961"/>
<stop offset="1" stop-color="white" stop-opacity="0"/>
</linearGradient>
<linearGradient id="paint81_linear_125_809" x1="894.654" y1="0.896484" x2="894.654" y2="32.8084" gradientUnits="userSpaceOnUse">
<stop stop-color="#FDD961"/>
<stop offset="1" stop-color="white" stop-opacity="0"/>
</linearGradient>
<linearGradient id="paint82_linear_125_809" x1="916.797" y1="0.896484" x2="916.797" y2="32.8084" gradientUnits="userSpaceOnUse">
<stop stop-color="#FDD961"/>
<stop offset="1" stop-color="white" stop-opacity="0"/>
</linearGradient>
<linearGradient id="paint83_linear_125_809" x1="916.797" y1="0.896484" x2="916.797" y2="32.8084" gradientUnits="userSpaceOnUse">
<stop stop-color="#FDD961"/>
<stop offset="1" stop-color="white" stop-opacity="0"/>
</linearGradient>
<linearGradient id="paint84_linear_125_809" x1="938.941" y1="0.896484" x2="938.941" y2="32.8084" gradientUnits="userSpaceOnUse">
<stop stop-color="#FDD961"/>
<stop offset="1" stop-color="white" stop-opacity="0"/>
</linearGradient>
<linearGradient id="paint85_linear_125_809" x1="938.941" y1="0.896484" x2="938.941" y2="32.8084" gradientUnits="userSpaceOnUse">
<stop stop-color="#FDD961"/>
<stop offset="1" stop-color="white" stop-opacity="0"/>
</linearGradient>
<linearGradient id="paint86_linear_125_809" x1="961.084" y1="0.896484" x2="961.084" y2="32.8084" gradientUnits="userSpaceOnUse">
<stop stop-color="#FDD961"/>
<stop offset="1" stop-color="white" stop-opacity="0"/>
</linearGradient>
<linearGradient id="paint87_linear_125_809" x1="961.084" y1="0.896484" x2="961.084" y2="32.8084" gradientUnits="userSpaceOnUse">
<stop stop-color="#FDD961"/>
<stop offset="1" stop-color="white" stop-opacity="0"/>
</linearGradient>
<linearGradient id="paint88_linear_125_809" x1="983.228" y1="0.896484" x2="983.228" y2="32.8084" gradientUnits="userSpaceOnUse">
<stop stop-color="#FDD961"/>
<stop offset="1" stop-color="white" stop-opacity="0"/>
</linearGradient>
<linearGradient id="paint89_linear_125_809" x1="983.228" y1="0.896484" x2="983.228" y2="32.8084" gradientUnits="userSpaceOnUse">
<stop stop-color="#FDD961"/>
<stop offset="1" stop-color="white" stop-opacity="0"/>
</linearGradient>
<linearGradient id="paint90_linear_125_809" x1="1005.37" y1="0.896484" x2="1005.37" y2="32.8084" gradientUnits="userSpaceOnUse">
<stop stop-color="#FDD961"/>
<stop offset="1" stop-color="white" stop-opacity="0"/>
</linearGradient>
<linearGradient id="paint91_linear_125_809" x1="1005.37" y1="0.896484" x2="1005.37" y2="32.8084" gradientUnits="userSpaceOnUse">
<stop stop-color="#FDD961"/>
<stop offset="1" stop-color="white" stop-opacity="0"/>
</linearGradient>
<linearGradient id="paint92_linear_125_809" x1="1027.51" y1="0.896484" x2="1027.51" y2="32.8084" gradientUnits="userSpaceOnUse">
<stop stop-color="#FDD961"/>
<stop offset="1" stop-color="white" stop-opacity="0"/>
</linearGradient>
<linearGradient id="paint93_linear_125_809" x1="1027.51" y1="0.896484" x2="1027.51" y2="32.8084" gradientUnits="userSpaceOnUse">
<stop stop-color="#FDD961"/>
<stop offset="1" stop-color="white" stop-opacity="0"/>
</linearGradient>
<linearGradient id="paint94_linear_125_809" x1="1049.66" y1="0.896484" x2="1049.66" y2="32.8084" gradientUnits="userSpaceOnUse">
<stop stop-color="#FDD961"/>
<stop offset="1" stop-color="white" stop-opacity="0"/>
</linearGradient>
<linearGradient id="paint95_linear_125_809" x1="1049.66" y1="0.896484" x2="1049.66" y2="32.8084" gradientUnits="userSpaceOnUse">
<stop stop-color="#FDD961"/>
<stop offset="1" stop-color="white" stop-opacity="0"/>
</linearGradient>
<linearGradient id="paint96_linear_125_809" x1="1071.8" y1="0.896484" x2="1071.8" y2="32.8084" gradientUnits="userSpaceOnUse">
<stop stop-color="#FDD961"/>
<stop offset="1" stop-color="white" stop-opacity="0"/>
</linearGradient>
<linearGradient id="paint97_linear_125_809" x1="1071.8" y1="0.896484" x2="1071.8" y2="32.8084" gradientUnits="userSpaceOnUse">
<stop stop-color="#FDD961"/>
<stop offset="1" stop-color="white" stop-opacity="0"/>
</linearGradient>
<linearGradient id="paint98_linear_125_809" x1="1093.94" y1="0.896484" x2="1093.94" y2="32.8084" gradientUnits="userSpaceOnUse">
<stop stop-color="#FDD961"/>
<stop offset="1" stop-color="white" stop-opacity="0"/>
</linearGradient>
<linearGradient id="paint99_linear_125_809" x1="1093.94" y1="0.896484" x2="1093.94" y2="32.8084" gradientUnits="userSpaceOnUse">
<stop stop-color="#FDD961"/>
<stop offset="1" stop-color="white" stop-opacity="0"/>
</linearGradient>
<linearGradient id="paint100_linear_125_809" x1="1116.09" y1="0.896484" x2="1116.09" y2="32.8084" gradientUnits="userSpaceOnUse">
<stop stop-color="#FDD961"/>
<stop offset="1" stop-color="white" stop-opacity="0"/>
</linearGradient>
<linearGradient id="paint101_linear_125_809" x1="1116.09" y1="0.896484" x2="1116.09" y2="32.8084" gradientUnits="userSpaceOnUse">
<stop stop-color="#FDD961"/>
<stop offset="1" stop-color="white" stop-opacity="0"/>
</linearGradient>
<linearGradient id="paint102_linear_125_809" x1="1138.23" y1="0.896484" x2="1138.23" y2="32.8084" gradientUnits="userSpaceOnUse">
<stop stop-color="#FDD961"/>
<stop offset="1" stop-color="white" stop-opacity="0"/>
</linearGradient>
<linearGradient id="paint103_linear_125_809" x1="1138.23" y1="0.896484" x2="1138.23" y2="32.8084" gradientUnits="userSpaceOnUse">
<stop stop-color="#FDD961"/>
<stop offset="1" stop-color="white" stop-opacity="0"/>
</linearGradient>
<linearGradient id="paint104_linear_125_809" x1="1160.38" y1="0.896484" x2="1160.38" y2="32.8084" gradientUnits="userSpaceOnUse">
<stop stop-color="#FDD961"/>
<stop offset="1" stop-color="white" stop-opacity="0"/>
</linearGradient>
<linearGradient id="paint105_linear_125_809" x1="1160.38" y1="0.896484" x2="1160.38" y2="32.8084" gradientUnits="userSpaceOnUse">
<stop stop-color="#FDD961"/>
<stop offset="1" stop-color="white" stop-opacity="0"/>
</linearGradient>
<linearGradient id="paint106_linear_125_809" x1="1182.52" y1="0.896484" x2="1182.52" y2="32.8084" gradientUnits="userSpaceOnUse">
<stop stop-color="#FDD961"/>
<stop offset="1" stop-color="white" stop-opacity="0"/>
</linearGradient>
<linearGradient id="paint107_linear_125_809" x1="1182.52" y1="0.896484" x2="1182.52" y2="32.8084" gradientUnits="userSpaceOnUse">
<stop stop-color="#FDD961"/>
<stop offset="1" stop-color="white" stop-opacity="0"/>
</linearGradient>
<linearGradient id="paint108_linear_125_809" x1="1204.66" y1="0.896484" x2="1204.66" y2="32.8084" gradientUnits="userSpaceOnUse">
<stop stop-color="#FDD961"/>
<stop offset="1" stop-color="white" stop-opacity="0"/>
</linearGradient>
<linearGradient id="paint109_linear_125_809" x1="1204.66" y1="0.896484" x2="1204.66" y2="32.8084" gradientUnits="userSpaceOnUse">
<stop stop-color="#FDD961"/>
<stop offset="1" stop-color="white" stop-opacity="0"/>
</linearGradient>
<linearGradient id="paint110_linear_125_809" x1="1226.81" y1="0.896484" x2="1226.81" y2="32.8084" gradientUnits="userSpaceOnUse">
<stop stop-color="#FDD961"/>
<stop offset="1" stop-color="white" stop-opacity="0"/>
</linearGradient>
<linearGradient id="paint111_linear_125_809" x1="1226.81" y1="0.896484" x2="1226.81" y2="32.8084" gradientUnits="userSpaceOnUse">
<stop stop-color="#FDD961"/>
<stop offset="1" stop-color="white" stop-opacity="0"/>
</linearGradient>
<linearGradient id="paint112_linear_125_809" x1="1248.95" y1="0.896484" x2="1248.95" y2="32.8084" gradientUnits="userSpaceOnUse">
<stop stop-color="#FDD961"/>
<stop offset="1" stop-color="white" stop-opacity="0"/>
</linearGradient>
<linearGradient id="paint113_linear_125_809" x1="1248.95" y1="0.896484" x2="1248.95" y2="32.8084" gradientUnits="userSpaceOnUse">
<stop stop-color="#FDD961"/>
<stop offset="1" stop-color="white" stop-opacity="0"/>
</linearGradient>
<linearGradient id="paint114_linear_125_809" x1="1271.09" y1="0.896484" x2="1271.09" y2="32.8084" gradientUnits="userSpaceOnUse">
<stop stop-color="#FDD961"/>
<stop offset="1" stop-color="white" stop-opacity="0"/>
</linearGradient>
<linearGradient id="paint115_linear_125_809" x1="1271.09" y1="0.896484" x2="1271.09" y2="32.8084" gradientUnits="userSpaceOnUse">
<stop stop-color="#FDD961"/>
<stop offset="1" stop-color="white" stop-opacity="0"/>
</linearGradient>
<linearGradient id="paint116_linear_125_809" x1="1293.24" y1="0.896484" x2="1293.24" y2="32.8084" gradientUnits="userSpaceOnUse">
<stop stop-color="#FDD961"/>
<stop offset="1" stop-color="white" stop-opacity="0"/>
</linearGradient>
<linearGradient id="paint117_linear_125_809" x1="1293.24" y1="0.896484" x2="1293.24" y2="32.8084" gradientUnits="userSpaceOnUse">
<stop stop-color="#FDD961"/>
<stop offset="1" stop-color="white" stop-opacity="0"/>
</linearGradient>
<linearGradient id="paint118_linear_125_809" x1="1315.38" y1="0.896484" x2="1315.38" y2="32.8084" gradientUnits="userSpaceOnUse">
<stop stop-color="#FDD961"/>
<stop offset="1" stop-color="white" stop-opacity="0"/>
</linearGradient>
<linearGradient id="paint119_linear_125_809" x1="1315.38" y1="0.896484" x2="1315.38" y2="32.8084" gradientUnits="userSpaceOnUse">
<stop stop-color="#FDD961"/>
<stop offset="1" stop-color="white" stop-opacity="0"/>
</linearGradient>
<linearGradient id="paint120_linear_125_809" x1="1337.52" y1="0.896484" x2="1337.52" y2="32.8084" gradientUnits="userSpaceOnUse">
<stop stop-color="#FDD961"/>
<stop offset="1" stop-color="white" stop-opacity="0"/>
</linearGradient>
<linearGradient id="paint121_linear_125_809" x1="1337.52" y1="0.896484" x2="1337.52" y2="32.8084" gradientUnits="userSpaceOnUse">
<stop stop-color="#FDD961"/>
<stop offset="1" stop-color="white" stop-opacity="0"/>
</linearGradient>
<linearGradient id="paint122_linear_125_809" x1="1359.67" y1="0.896484" x2="1359.67" y2="32.8084" gradientUnits="userSpaceOnUse">
<stop stop-color="#FDD961"/>
<stop offset="1" stop-color="white" stop-opacity="0"/>
</linearGradient>
<linearGradient id="paint123_linear_125_809" x1="1359.67" y1="0.896484" x2="1359.67" y2="32.8084" gradientUnits="userSpaceOnUse">
<stop stop-color="#FDD961"/>
<stop offset="1" stop-color="white" stop-opacity="0"/>
</linearGradient>
<linearGradient id="paint124_linear_125_809" x1="1381.81" y1="0.896484" x2="1381.81" y2="32.8084" gradientUnits="userSpaceOnUse">
<stop stop-color="#FDD961"/>
<stop offset="1" stop-color="white" stop-opacity="0"/>
</linearGradient>
<linearGradient id="paint125_linear_125_809" x1="1381.81" y1="0.896484" x2="1381.81" y2="32.8084" gradientUnits="userSpaceOnUse">
<stop stop-color="#FDD961"/>
<stop offset="1" stop-color="white" stop-opacity="0"/>
</linearGradient>
<linearGradient id="paint126_linear_125_809" x1="1403.95" y1="0.896484" x2="1403.95" y2="32.8084" gradientUnits="userSpaceOnUse">
<stop stop-color="#FDD961"/>
<stop offset="1" stop-color="white" stop-opacity="0"/>
</linearGradient>
<linearGradient id="paint127_linear_125_809" x1="1403.95" y1="0.896484" x2="1403.95" y2="32.8084" gradientUnits="userSpaceOnUse">
<stop stop-color="#FDD961"/>
<stop offset="1" stop-color="white" stop-opacity="0"/>
</linearGradient>
<linearGradient id="paint128_linear_125_809" x1="1424.08" y1="0.896484" x2="1424.08" y2="32.8084" gradientUnits="userSpaceOnUse">
<stop stop-color="#FDD961"/>
<stop offset="1" stop-color="white" stop-opacity="0"/>
</linearGradient>
<linearGradient id="paint129_linear_125_809" x1="1424.08" y1="0.896484" x2="1424.08" y2="32.8084" gradientUnits="userSpaceOnUse">
<stop stop-color="#FDD961"/>
<stop offset="1" stop-color="white" stop-opacity="0"/>
</linearGradient>
</defs>
</svg>
