<svg width="24" height="24" viewBox="0 0 24 24" fill="none" xmlns="http://www.w3.org/2000/svg">
<circle cx="12.4175" cy="12.4116" r="11.5825" fill="white"/>
<path d="M12.5051 10.7881C11.5622 10.7881 10.7926 11.5577 10.7926 12.5006C10.7926 13.4436 11.5622 14.2132 12.5051 14.2132C13.4481 14.2132 14.2176 13.4436 14.2176 12.5006C14.2176 11.5577 13.4481 10.7881 12.5051 10.7881ZM17.6413 12.5006C17.6413 11.7915 17.6478 11.0887 17.6079 10.3809C17.5681 9.55863 17.3805 8.82891 16.7793 8.22766C16.1768 7.62513 15.4484 7.43885 14.6262 7.39902C13.917 7.35919 13.2143 7.36562 12.5064 7.36562C11.7973 7.36562 11.0945 7.35919 10.3867 7.39902C9.56445 7.43885 8.83474 7.62641 8.23351 8.22766C7.63098 8.8302 7.4447 9.55863 7.40488 10.3809C7.36505 11.09 7.37148 11.7928 7.37148 12.5006C7.37148 13.2085 7.36505 13.9125 7.40488 14.6204C7.4447 15.4426 7.63227 16.1724 8.23351 16.7736C8.83603 17.3762 9.56445 17.5624 10.3867 17.6023C11.0958 17.6421 11.7985 17.6357 12.5064 17.6357C13.2156 17.6357 13.9183 17.6421 14.6262 17.6023C15.4484 17.5624 16.1781 17.3749 16.7793 16.7736C17.3818 16.1711 17.5681 15.4426 17.6079 14.6204C17.649 13.9125 17.6413 13.2098 17.6413 12.5006ZM12.5051 15.1356C11.047 15.1356 9.87021 13.9588 9.87021 12.5006C9.87021 11.0425 11.047 9.86568 12.5051 9.86568C13.9632 9.86568 15.14 11.0425 15.14 12.5006C15.14 13.9588 13.9632 15.1356 12.5051 15.1356ZM15.2479 10.3731C14.9075 10.3731 14.6326 10.0982 14.6326 9.75776C14.6326 9.41731 14.9075 9.14238 15.2479 9.14238C15.5884 9.14238 15.8633 9.41731 15.8633 9.75776C15.8634 9.83861 15.8476 9.91867 15.8167 9.99338C15.7858 10.0681 15.7405 10.136 15.6833 10.1931C15.6261 10.2503 15.5583 10.2956 15.4836 10.3265C15.4089 10.3574 15.3288 10.3732 15.2479 10.3731Z" fill="#4588EC"/>
</svg>
