<svg width="23" height="23" viewBox="0 0 23 23" fill="none" xmlns="http://www.w3.org/2000/svg">
<path d="M11.5 0.000976562C5.14865 0.000976562 0 5.14962 0 11.501C0 17.8523 5.14865 23.001 11.5 23.001C17.8514 23.001 23 17.8523 23 11.501C23 5.14962 17.8514 0.000976562 11.5 0.000976562ZM8.6849 16.2675H6.35615V8.77332H8.6849V16.2675ZM7.50615 7.85332C6.77062 7.85332 6.29505 7.33223 6.29505 6.68775C6.29505 6.03009 6.785 5.52457 7.53609 5.52457C8.28719 5.52457 8.74719 6.03009 8.76156 6.68775C8.76156 7.33223 8.28719 7.85332 7.50615 7.85332ZM17.1901 16.2675H14.8614V12.1143C14.8614 11.1476 14.5235 10.4911 13.6814 10.4911C13.0381 10.4911 12.656 10.9356 12.4871 11.3632C12.4248 11.5154 12.4092 11.731 12.4092 11.9454V16.2663H10.0793V11.1632C10.0793 10.2276 10.0493 9.44535 10.0182 8.77212H12.0415L12.1481 9.81311H12.1948C12.5015 9.32436 13.2526 8.60322 14.5092 8.60322C16.0413 8.60322 17.1901 9.62983 17.1901 11.8364V16.2675Z" fill="white"/>
</svg>
