<svg width="96" height="30" viewBox="0 0 96 30" fill="none" xmlns="http://www.w3.org/2000/svg">
<path d="M11.8135 0.458008L1.53737 7.17389L7.84869 11.3005L11.8135 8.63035V0.458008Z" fill="#4588EC"/>
<path d="M15.9401 20.8484L0 10.3295V18.421L15.9401 29.0208V20.8484Z" fill="#4588EC"/>
<path d="M34.3982 8.50571V6.6997H38.0685V20.5652C38.0685 22.7984 37.3208 24.517 35.8255 25.721C34.3496 26.9056 32.5631 27.4979 30.4658 27.4979C27.1645 27.4979 24.8633 26.3133 23.5622 23.9442L26.7664 22.109C27.4849 23.4684 28.7569 24.1481 30.5823 24.1481C31.7669 24.1481 32.699 23.8373 33.3787 23.2159C34.0584 22.5945 34.3982 21.7109 34.3982 20.5652V18.9922C33.2913 20.4681 31.7377 21.206 29.7375 21.206C27.6791 21.206 25.9507 20.4875 24.5525 19.0505C23.1738 17.5746 22.4844 15.8074 22.4844 13.749C22.4844 11.6905 23.1835 9.93304 24.5817 8.47658C25.9799 7.02012 27.6985 6.29189 29.7375 6.29189C31.7377 6.29189 33.2913 7.02983 34.3982 8.50571ZM33.233 16.6327C34.0098 15.8754 34.3982 14.9141 34.3982 13.749C34.3982 12.5838 34.0098 11.6419 33.233 10.9234C32.4757 10.1661 31.5047 9.78739 30.3201 9.78739C29.1549 9.78739 28.1743 10.1661 27.3781 10.9234C26.6207 11.6419 26.242 12.5838 26.242 13.749C26.242 14.9141 26.6207 15.8754 27.3781 16.6327C28.1548 17.3707 29.1355 17.7396 30.3201 17.7396C31.5047 17.7396 32.4757 17.3707 33.233 16.6327Z" fill="black"/>
<path d="M44.7966 21.2643H41.039V0H44.7966V21.2643Z" fill="black"/>
<path d="M60.208 19.4583C58.7321 20.9341 56.9067 21.6721 54.7317 21.6721C52.5567 21.6721 50.7313 20.9341 49.2554 19.4583C47.7795 17.9824 47.0416 16.157 47.0416 13.982C47.0416 11.8264 47.7795 10.0107 49.2554 8.53484C50.7507 7.03954 52.5761 6.29189 54.7317 6.29189C56.8873 6.29189 58.7127 7.03954 60.208 8.53484C61.7033 10.0301 62.4509 11.8458 62.4509 13.982C62.4509 16.1375 61.7033 17.963 60.208 19.4583ZM51.9062 16.8658C52.6635 17.6231 53.6054 18.0018 54.7317 18.0018C55.858 18.0018 56.7999 17.6231 57.5572 16.8658C58.3146 16.1084 58.6933 15.1472 58.6933 13.982C58.6933 12.8168 58.3146 11.8556 57.5572 11.0982C56.7999 10.3408 55.858 9.96216 54.7317 9.96216C53.6054 9.96216 52.6635 10.3408 51.9062 11.0982C51.1682 11.875 50.7993 12.8362 50.7993 13.982C50.7993 15.1277 51.1682 16.089 51.9062 16.8658Z" fill="black"/>
<path d="M71.7067 6.35015C73.8817 6.35015 75.6197 7.11722 76.9208 8.65135C78.2608 10.1661 78.9307 11.9624 78.9307 14.0402C78.9307 14.1373 78.9113 14.4383 78.8725 14.9432H66.0848C66.279 16.3997 66.9004 17.5649 67.949 18.4387C68.9977 19.3126 70.3085 19.7496 71.8815 19.7496C74.0953 19.7496 75.6586 18.9242 76.5713 17.2736L78.2608 18.264C77.6199 19.3126 76.7363 20.1379 75.61 20.7399C74.5031 21.3225 73.2505 21.6138 71.8523 21.6138C69.5609 21.6138 67.6966 20.8953 66.2596 19.4583C64.8225 18.0212 64.104 16.1958 64.104 13.982C64.104 11.7876 64.8128 9.97188 66.2304 8.53484C67.648 7.07838 69.4735 6.35015 71.7067 6.35015ZM71.7067 8.21442C70.192 8.21442 68.92 8.66106 67.8908 9.55436C66.881 10.4477 66.279 11.6225 66.0848 13.079H76.9499C76.7363 11.5254 76.144 10.3311 75.1731 9.4961C74.1633 8.64164 73.0078 8.21442 71.7067 8.21442Z" fill="black"/>
<path d="M94.0774 9.55436V0.873873H96V21.2643H94.0774V18.4096C92.7375 20.5458 90.7761 21.6138 88.1933 21.6138C86.1155 21.6138 84.3386 20.8759 82.8627 19.4C81.4063 17.9241 80.678 16.1181 80.678 13.982C80.678 11.8458 81.4063 10.0398 82.8627 8.56397C84.3386 7.08809 86.1155 6.35015 88.1933 6.35015C90.7761 6.35015 92.7375 7.41822 94.0774 9.55436ZM84.2609 18.0892C85.3678 19.1961 86.7272 19.7496 88.339 19.7496C89.9508 19.7496 91.3102 19.1961 92.4171 18.0892C93.524 16.9434 94.0774 15.5744 94.0774 13.982C94.0774 12.3702 93.524 11.0108 92.4171 9.90391C91.3102 8.77758 89.9508 8.21442 88.339 8.21442C86.7272 8.21442 85.3678 8.77758 84.2609 9.90391C83.154 11.0108 82.6005 12.3702 82.6005 13.982C82.6005 15.5744 83.154 16.9434 84.2609 18.0892Z" fill="black"/>
</svg>
