<svg width="24" height="25" viewBox="0 0 24 25" fill="none" xmlns="http://www.w3.org/2000/svg">
<path d="M11.6714 0.829102C5.22537 0.829102 0 6.05448 0 12.5005C0 18.9465 5.22537 24.1719 11.6714 24.1719C18.1174 24.1719 23.3428 18.9465 23.3428 12.5005C23.3428 6.05448 18.1174 0.829102 11.6714 0.829102Z" fill="white"/>
<g clip-path="url(#clip0_125_877)">
<path fill-rule="evenodd" clip-rule="evenodd" d="M10.0527 6.43115C9.38173 6.43165 8.8387 6.97508 8.83919 7.64473C8.8387 8.31437 9.38223 8.85781 10.0532 8.8583H11.2672V7.64522C11.2677 6.97558 10.7242 6.43214 10.0527 6.43115C10.0532 6.43115 10.0532 6.43115 10.0527 6.43115V6.43115ZM10.0527 9.66801H6.81632C6.14533 9.66851 5.6018 10.2119 5.6023 10.8816C5.6013 11.5512 6.14484 12.0947 6.81582 12.0957H10.0527C10.7237 12.0952 11.2672 11.5517 11.2667 10.8821C11.2672 10.2119 10.7237 9.66851 10.0527 9.66801Z" fill="#4588EC"/>
<path fill-rule="evenodd" clip-rule="evenodd" d="M17.7406 10.8816C17.7411 10.2119 17.1976 9.66851 16.5266 9.66801C15.8556 9.66851 15.3121 10.2119 15.3126 10.8816V12.0957H16.5266C17.1976 12.0952 17.7411 11.5517 17.7406 10.8816ZM14.5037 10.8816V7.64473C14.5042 6.97558 13.9612 6.43214 13.2902 6.43115C12.6192 6.43165 12.0757 6.97508 12.0762 7.64473V10.8816C12.0752 11.5512 12.6187 12.0947 13.2897 12.0957C13.9607 12.0952 14.5042 11.5517 14.5037 10.8816Z" fill="#4588EC"/>
<path fill-rule="evenodd" clip-rule="evenodd" d="M13.2897 18.5693C13.9607 18.5688 14.5042 18.0254 14.5037 17.3557C14.5042 16.6861 13.9607 16.1426 13.2897 16.1421H12.0757V17.3557C12.0752 18.0249 12.6187 18.5683 13.2897 18.5693ZM13.2897 15.3319H16.5266C17.1976 15.3314 17.7411 14.788 17.7406 14.1184C17.7416 13.4487 17.1981 12.9053 16.5271 12.9043H13.2902C12.6192 12.9048 12.0757 13.4482 12.0762 14.1179C12.0757 14.788 12.6187 15.3314 13.2897 15.3319Z" fill="#4588EC"/>
<path fill-rule="evenodd" clip-rule="evenodd" d="M5.6023 14.1184C5.6018 14.788 6.14533 15.3314 6.81632 15.3319C7.4873 15.3314 8.03083 14.788 8.03034 14.1184V12.9048H6.81632C6.14533 12.9053 5.6018 13.4487 5.6023 14.1184ZM8.83919 14.1184V17.3552C8.8382 18.0249 9.38173 18.5683 10.0527 18.5693C10.7237 18.5688 11.2672 18.0254 11.2667 17.3557V14.1194C11.2677 13.4497 10.7242 12.9063 10.0532 12.9053C9.38173 12.9053 8.8387 13.4487 8.83919 14.1184C8.83919 14.1184 8.83919 14.1189 8.83919 14.1184Z" fill="#4588EC"/>
</g>
<defs>
<clipPath id="clip0_125_877">
<rect width="12.1382" height="12.1382" fill="white" transform="translate(5.60229 6.43115)"/>
</clipPath>
</defs>
</svg>
